# xmcd
#
# Track frame offsets:
#	150
#	13428
#	24919
#	39770
#	51475
#	62512
#	75018
#	87025
#	103385
#	116277
#	129083
#	144556
#	157589
#
# Disc length: 2296 seconds
#
# Revision: 5
# Processed by: cddbd v1.5.2PL0 Copyright (c) Steve Scherf et al.
# Submitted via: EZCDAudioConverter 2.4.0.1
#
DISCID=8e08f60d
DTITLE=João Mineiro E Marciano - (João Mineiro and Marciano) Os Grandes Sucessos
DYEAR=1987
DGENRE=Sertanejo
TTITLE0=Crises De Amor
TTITLE1=Whisky Com Gelo
TTITLE2=Viciado Em Você
TTITLE3=A Mulher Que Eu Amo
TTITLE4=Canção Do Nosso Adeus
TTITLE5=Dama Da Noite
TTITLE6=Casa De Festa
TTITLE7=Seu Amor Ainda é Tudo
TTITLE8=Amor E Amizade
TTITLE9=Telefone Mais
TTITLE10=As Paredes Azuis
TTITLE11=Esta Noite Como Lembrança
TTITLE12=Chuvas De Maio
EXTD=
EXTT0=
EXTT1=
EXTT2=
EXTT3=
EXTT4=
EXTT5=
EXTT6=
EXTT7=
EXTT8=
EXTT9=
EXTT10=
EXTT11=
EXTT12=
PLAYORDER=
